<svg xmlns="http://www.w3.org/2000/svg" width="1024" height="1024" viewBox="-54.0 -54.0 1132.0 1132.0">
  <g fill="none" stroke="black" stroke-width="50" stroke-linecap="round" stroke-linejoin="round">
    <path d="M 947.267,715.807 C 886.427,700.974 849.27,693.433 816.919,689.474 C 775.139,687.077 742.772,687.137 714.93,688.973 Q 663.203,695.793 591.257,707.476" data-line="nan"  stroke-width="50.0"/>
    <path d="M 947.267,715.807 C 885.464,744.961 861.978,754.158 833.972,763.529 C 806.194,771.159 778.197,777.17 745.772,782.234 C 717.881,784.952 685.411,785.847 657.574,785.096 C 634.303,782.664 606.671,777.744 583.564,771.89 C 564.733,765.616 547.761,758.106 516.493,741.896" data-line="nan"  stroke-width="50.0"/>
    <path d="M 591.257,707.476 C 551.746,724.42 475.019,760.139 455.04,767.884 C 430.565,774.448 405.499,779.479 366.138,784.619 C 338.287,785.995 307.837,785.217 275.331,781.897 C 245.47,776.816 215.801,769.817 182.65,760.417 C 148.383,748.655 125.664,739.46 76.733,717.43" data-line="nan"  stroke-width="50.0"/>
    <path d="M 435.568,708.755 C 366.599,696.154 328.074,690.552 290.602,687.455 C 249.146,687.088 200.902,690.121 163.864,695.134 Q 131.533,702.156 76.733,717.43" data-line="nan"  stroke-width="50.0"/>
    <path d="M 484.471,662.199 C 423.106,571.49 384.116,519.934 340.126,467.858 C 304.576,431.976 281.633,411.847 259.874,394.344 C 232.751,374.533 204.908,356.068 175.39,338.838 Q 149.027,325.021 93.895,301.764" data-line="nan"  stroke-width="50.0"/>
    <path d="M 932.412,300.384 C 878.197,326.668 822.642,357.42 794.572,375.344 C 771.505,391.421 752.643,405.913 734.107,421.95 C 684.877,469.732 652.681,506.933 604.972,567.83 L 546.654,648.287" data-line="nan"  stroke-width="50.0"/>
    <path d="M 546.654,648.287 C 579.383,528.735 588.446,489.07 595.909,449.595 C 600.304,414.546 603.185,382.141 603.961,342.884 C 603.05,307.877 599.781,268.52 594.304,231.352 C 586.148,191.564 575.885,152.617 563.282,113.465 C 550.951,80.76 539.939,55.977 514.881,4.0" data-line="nan"  stroke-width="50.0"/>
    <path d="M 514.881,4.0 C 490.857,46.83 475.741,79.32 461.819,116.428 L 444.549,171.903" data-line="nan"  stroke-width="50.0"/>
    <path d="M 860.864,461.572 C 839.064,493.953 814.946,524.748 790.293,552.772 C 763.991,578.376 726.82,610.725 689.037,640.186 Q 651.079,667.629 591.257,707.476" data-line="nan"  stroke-width="50.0"/>
    <path d="M 421.762,356.948 C 422.799,389.502 425.653,421.853 430.241,454.478 C 437.271,491.599 444.526,523.808 453.101,556.716 L 484.471,662.199" data-line="nan"  stroke-width="50.0"/>
    <path d="M 516.493,741.896 L 435.568,708.755" data-line="0.0"  stroke-width="50.0"/>
    <path d="M 435.568,708.755 L 309.676,619.424" data-line="6.0"  stroke-width="50.0"/>
    <path d="M 931.8608118418394,300.23466292801555 A 590.1519510799463,590.1519510799463 0 0,1 860.8734408293166,461.577976830093" data-line="9.0"  stroke-width="50.0"/>
    <path d="M 546.654,648.287 L 493.913,751.194" data-line="10.0"  stroke-width="50.0"/>
    <path d="M 484.341,661.306 L 512.443,716.144" data-line="11.0"  stroke-width="50.0"/>
    <path d="M 512.033,1020.0 L 512.443,716.144" data-line="14.0"  stroke-width="50.0"/>
    <path d="M 484.341,661.306 L 484.471,662.199" data-line="25.0"  stroke-width="50.0"/>
    <path d="M 309.63059438535987,619.4807340552177 A 652.122881977722,652.122881977722 0 0,1 93.73015786232531,301.8146326012038" data-line="26.0"  stroke-width="50.0"/>
    <path d="M 444.549,171.903 C 426.65802740281407,233.40387581531252 421.0170687079876,295.5874717255547 421.762,356.948" data-line="28.0"  stroke-width="50.0"/>
  </g>
</svg>