<svg xmlns="http://www.w3.org/2000/svg" width="1024" height="1024" viewBox="-54.0 -54.0 1132.0 1132.0">
  <g fill="none" stroke="black" stroke-width="50" stroke-linecap="round" stroke-linejoin="round">
    <path d="M 581.547,365.717 C 582.172,344.572 581.599,249.534 577.268,239.549 C 571.7,233.621 564.428,229.793 555.797,227.861" data-line="nan"  stroke-width="50.0"/>
    <path d="M 300.04,227.923 C 291.185,230.197 284.869,233.759 282.357,236.033 C 278.385,241.889 275.295,251.352 274.876,346.033 L 275.858,367.416" data-line="nan"  stroke-width="50.0"/>
    <path d="M 327.059,367.596 C 326.501,401.764 325.668,409.825 322.614,420.817 C 317.292,430.291 311.323,436.773 302.281,443.387 C 272.714,456.428 256.447,466.315 242.015,479.17 C 233.306,491.171 227.443,501.742 220.61,521.293 C 217.338,539.616 216.074,557.621 215.867,611.832" data-line="nan"  stroke-width="50.0"/>
    <path d="M 531.67,367.578 C 531.373,398.666 532.031,407.57 535.449,420.513 C 541.34,430.772 547.198,436.894 556.023,442.973 C 588.445,457.296 606.718,468.838 613.64,474.796 C 620.249,481.878 626.769,491.104 631.569,500.004 C 638.056,518.278 641.785,538.75 642.506,550.098 L 642.802,611.834" data-line="nan"  stroke-width="50.0"/>
    <path d="M 497.938,85.19 C 497.115,64.662 492.576,47.066 489.35,40.024 C 484.096,31.609 473.223,19.589 466.4,14.57 C 459.313,10.656 452.756,7.982 443.052,5.331 C 427.814,4.04 417.161,5.245 408.605,7.353 C 394.81,13.089 381.344,23.26 371.887,35.211 C 366.447,45.84 363.16,56.846 361.564,67.723 L 361.251,124.309" data-line="nan"  stroke-width="50.0"/>
    <path d="M 216.214,941.902 C 216.626,950.914 218.365,959.501 220.684,966.545 C 225.046,975.87 234.631,989.901 242.913,998.415 C 249.663,1003.929 263.638,1012.236 272.485,1015.657 C 281.921,1018.123 293.409,1019.386 322.572,1019.825" data-line="nan"  stroke-width="50.0"/>
    <path d="M 548.255,1019.801 C 568.734,1019.561 582.203,1018.099 595.988,1014.004 L 609.742,1007.104" data-line="nan"  stroke-width="50.0"/>
    <path d="M 606.686,790.524 C 598.124,808.705 591.988,826.146 588.159,843.99 C 587.07,857.375 588.243,875.158 592.685,893.103 C 598.656,906.682 607.205,920.482 618.713,934.017 C 632.244,945.533 645.761,953.91 659.312,959.815 C 677.406,964.761 695.401,966.681 708.969,966.159 C 727.032,962.859 740.572,958.286 754.545,951.308 C 768.436,941.386 781.085,928.985 791.349,915.294 C 798.782,901.446 803.758,887.723 806.888,873.963 C 808.112,860.36 807.606,846.823 805.337,833.164 C 801.51,819.457 796.415,806.122 787.756,788.081 L 763.946,747.596" data-line="nan"  stroke-width="50.0"/>
    <path d="M 581.547,365.717 L 275.858,367.416" data-line="1.0"  stroke-width="50.0"/>
    <path d="M 497.781,227.745 L 497.938,85.19" data-line="5.0"  stroke-width="50.0"/>
    <path d="M 215.867,611.832 L 216.214,941.902" data-line="7.0"  stroke-width="50.0"/>
    <path d="M 215.882,603.816 L 480.442,606.809" data-line="8.0"  stroke-width="50.0"/>
    <path d="M 555.797,227.861 L 300.04,227.923" data-line="9.0"  stroke-width="50.0"/>
    <path d="M 322.572,1019.825 L 548.255,1019.801" data-line="15.0"  stroke-width="50.0"/>
    <path d="M 683.147,667.195 L 606.686,790.524" data-line="17.0"  stroke-width="50.0"/>
    <path d="M 683.147,667.195 L 697.467,644.718" data-line="18.0"  stroke-width="50.0"/>
    <path d="M 361.251,124.309 L 361.218,227.769" data-line="20.0"  stroke-width="50.0"/>
    <path d="M 763.946,747.596 L 697.467,644.718" data-line="24.0"  stroke-width="50.0"/>
  </g>
</svg>