<svg xmlns="http://www.w3.org/2000/svg" width="1024" height="1024" viewBox="-54.0 -54.0 1132.0 1132.0">
  <g fill="none" stroke="black" stroke-width="50" stroke-linecap="round" stroke-linejoin="round">
    <path d="M 599.045,197.254 C 578.011,195.413 437.307,195.863 429.044,197.716 C 424.148,200.232 419.531,203.888 415.182,209.234 C 412.217,214.881 410.348,220.267 409.363,228.104" data-line="nan"  stroke-width="50.0"/>
    <path d="M 409.186,401.575 L 408.845,412.529" data-line="nan"  stroke-width="50.0"/>
    <path d="M 613.757,412.366 C 613.121,231.35 612.452,224.603 610.256,215.087 Q 606.341,206.698 599.045,197.254" data-line="nan"  stroke-width="50.0"/>
    <path d="M 819.56,612.052 C 827.371,596.81 829.72,586.571 830.038,455.441 C 829.511,440.323 826.612,430.109 822.58,423.708 C 819.634,420.69 816.055,417.829 808.006,414.209 L 796.434,412.797" data-line="nan"  stroke-width="50.0"/>
    <path d="M 612.811,801.761 C 609.974,813.854 604.582,822.01 597.108,828.13 C 589.204,831.168 573.966,832.663 449.325,832.727 C 433.992,831.573 426.208,828.615 418.492,823.415 C 415.531,820.156 411.475,811.67 409.297,799.574" data-line="nan"  stroke-width="50.0"/>
    <path d="M 409.054,630.988 L 408.8,617.252" data-line="nan"  stroke-width="50.0"/>
    <path d="M 225.286,412.859 C 215.157,414.736 209.408,417.338 204.273,421.105 C 199.811,426.353 196.681,431.958 193.842,441.79 C 193.534,582.5 194.487,590.47 196.081,595.754 C 201.499,605.733 204.95,609.306 213.324,614.123 Q 221.87,616.271 228.862,616.826" data-line="nan"  stroke-width="50.0"/>
    <path d="M 171.686,1015.418 C 147.35,1014.937 129.069,1013.375 116.892,1011.086 C 98.695,1005.211 80.513,996.377 68.356,988.568 C 50.56,973.674 39.409,961.618 30.228,949.401 C 19.632,931.377 12.004,913.234 7.054,895.044 Q 4.247,870.894 4.027,804.116" data-line="nan"  stroke-width="50.0"/>
    <path d="M 4.132,164.79 C 4.792,140.735 6.39,128.726 11.099,110.803 C 18.424,92.974 29.277,74.482 38.58,62.32 C 49.454,50.724 66.982,36.097 79.067,28.334 C 97.084,19.582 115.375,13.591 127.26,11.117 Q 156.872,8.733 228.515,8.585" data-line="nan"  stroke-width="50.0"/>
    <path d="M 855.664,8.611 C 879.893,9.216 898.009,11.181 916.253,15.496 C 928.374,19.791 946.731,28.863 959.293,37.1 C 971.312,46.785 986.982,63.287 995.872,75.374 C 1006.258,93.739 1013.469,111.823 1016.78,123.954 C 1018.91,136.373 1019.833,148.573 1019.973,209.442" data-line="nan"  stroke-width="50.0"/>
    <path d="M 965.9716201992667,980.7347713762516 A 147.71192735290043,147.71192735290043 0 0,1 859.7615527946047,1014.775122304841" data-line="0.0"  stroke-width="50.0"/>
    <path d="M 819.56,612.052 L 613.478,619.273" data-line="5.0"  stroke-width="50.0"/>
    <path d="M 859.723,1015.275 L 171.686,1015.418" data-line="8.0"  stroke-width="50.0"/>
    <path d="M 409.363,228.104 L 409.186,401.575" data-line="8.0"  stroke-width="50.0"/>
    <path d="M 4.027,804.116 L 4.132,164.79" data-line="10.0"  stroke-width="50.0"/>
    <path d="M 228.515,8.585 L 855.664,8.611" data-line="12.0"  stroke-width="50.0"/>
    <path d="M 796.434,412.797 L 613.757,412.366" data-line="12.0"  stroke-width="50.0"/>
    <path d="M 613.478,619.273 L 612.811,801.761" data-line="13.0"  stroke-width="50.0"/>
    <path d="M 1019.973,209.442 L 1019.924,867.057" data-line="14.0"  stroke-width="50.0"/>
    <path d="M 409.297,799.574 L 409.054,630.988" data-line="15.0"  stroke-width="50.0"/>
    <path d="M 1020.1005931301147,867.0590084652177 A 150.09411898533295,150.09411898533295 0 0,1 965.9878773746211,980.7542820825231" data-line="15.0"  stroke-width="50.0"/>
    <path d="M 408.845,412.529 L 225.286,412.859" data-line="17.0"  stroke-width="50.0"/>
    <path d="M 228.862,616.826 L 408.8,617.252" data-line="19.0"  stroke-width="50.0"/>
  </g>
</svg>