<svg xmlns="http://www.w3.org/2000/svg" width="1024" height="1024" viewBox="-54.0 -54.0 1132.0 1132.0">
  <g fill="none" stroke="black" stroke-width="50" stroke-linecap="round" stroke-linejoin="round">
    <path d="M 813.66,606.312 C 818.297,579.607 822.178,547.182 823.561,512.261 C 822.661,484.762 820.838,464.864 812.511,413.364" data-line="nan"  stroke-width="50.0"/>
    <path d="M 202.437,413.836 C 194.176,466.519 192.35,494.026 191.842,516.258 C 192.193,531.177 194.422,560.856 201.492,607.517" data-line="nan"  stroke-width="50.0"/>
    <path d="M 327.015,738.171 C 306.517,730.425 287.017,720.189 269.369,707.82 C 252.408,692.37 239.256,677.39 227.393,660.423 Q 215.32,638.042 201.492,607.517" data-line="nan"  stroke-width="50.0"/>
    <path d="M 965.581,514.481 L 1020.0,262.914" data-line="0.0"  stroke-width="50.0"/>
    <path d="M 1015.189,761.086 L 965.581,514.481" data-line="1.0"  stroke-width="50.0"/>
    <path d="M 1015.189,761.086 L 813.66,606.312" data-line="2.0"  stroke-width="50.0"/>
    <path d="M 846.811,392.401 L 1020.0,262.914" data-line="4.0"  stroke-width="50.0"/>
    <path d="M 169.469,393.342 L 4.0,268.071" data-line="5.0"  stroke-width="50.0"/>
    <path d="M 201.492,607.517 L 4.643,758.092" data-line="7.0"  stroke-width="50.0"/>
    <path d="M 50.151,512.31 L 4.643,758.092" data-line="8.0"  stroke-width="50.0"/>
    <path d="M 50.151,512.31 L 50.028,509.584" data-line="9.0"  stroke-width="50.0"/>
    <path d="M 50.028,509.584 L 4.0,268.071" data-line="10.0"  stroke-width="50.0"/>
    <path d="M 811.7148797050702,413.60515230183404 A 193.0736625778645,193.0736625778645 0 0,0 620.3436676595,276.61627057170244" data-line="11.0"  stroke-width="50.0"/>
    <path d="M 812.2172573775638,605.9487874380878 A 186.44370902178733,186.44370902178733 0 0,1 620.7133079049055,746.5678864056836" data-line="12.0"  stroke-width="50.0"/>
    <path d="M 846.811,392.401 L 812.511,413.364" data-line="23.0"  stroke-width="50.0"/>
    <path d="M 169.469,393.342 L 202.437,413.836" data-line="25.0"  stroke-width="50.0"/>
    <path d="M 620.337,276.421 L 355.47,278.774" data-line="26.0"  stroke-width="50.0"/>
    <path d="M 355.4402982433065,278.58253927924403 A 186.342371635626,186.342371635626 0 0,0 204.07177549020903,414.276152315822" data-line="27.0"  stroke-width="50.0"/>
    <path d="M 620.678,747.182 L 327.015,738.171" data-line="28.0"  stroke-width="50.0"/>
  </g>
</svg>