<svg xmlns="http://www.w3.org/2000/svg" width="1024" height="1024" viewBox="-54.0 -54.0 1132.0 1132.0">
  <g fill="none" stroke="black" stroke-width="50" stroke-linecap="round" stroke-linejoin="round">
    <path d="M 423.282,87.511 C 412.103,71.501 401.315,59.298 388.702,48.005 C 377.372,40.219 366.339,34.544 356.475,31.219 C 344.179,29.106 330.3,29.068 316.874,31.282 C 303.947,35.83 291.371,43.033 281.078,51.298 C 270.48,62.744 262.863,73.402 255.165,87.3 C 249.249,101.705 244.359,118.382 241.045,135.932 C 239.33,155.643 239.223,173.182 240.462,190.714 C 243.522,210.4 247.667,227.734 253.43,245.819 C 261.57,265.529 269.329,280.666 278.876,296.134 C 288.117,308.6 299.403,320.896 311.53,331.195 C 323.746,338.944 335.032,343.918 351.188,347.943 C 367.691,348.534 385.314,345.356 392.962,342.561 C 401.066,338.443 416.066,327.368 427.497,314.74 C 438.66,297.358 447.339,277.558 453.425,255.346 C 456.777,232.469 457.505,208.891 455.476,182.981 C 451.229,158.515 444.616,134.656 434.776,109.303 L 423.282,87.511" data-line="nan"  stroke-width="50.0"/>
    <path d="M 578.794,284.601 C 572.546,264.872 567.953,238.386 566.638,212.679 C 568.241,185.459 572.779,157.965 580.336,130.661 C 589.627,106.984 600.326,87.088 613.528,68.673 C 628.536,53.183 645.787,40.336 660.356,32.93 C 667.655,30.797 677.083,29.233 696.449,29.285 C 713.35,33.181 728.26,40.135 738.193,47.184 C 748.693,57.18 759.678,71.119 766.085,81.801 C 772.634,95.809 777.559,109.951 781.606,126.584 C 784.164,145.665 784.975,163.214 784.461,180.426 C 782.283,199.006 778.296,218.952 774.067,234.39 C 766.737,255.037 759.054,272.067 750.544,287.546 C 740.436,302.556 730.344,314.728 720.267,324.606 C 708.061,334.016 697.266,340.392 685.933,344.885 C 672.841,347.878 660.655,348.472 647.561,347.294 C 636.053,344.299 625.176,339.723 613.165,332.054 C 603.477,323.453 593.053,310.923 584.438,296.848 L 578.794,284.601" data-line="nan"  stroke-width="50.0"/>
    <path d="M 177.585,497.816 C 168.095,500.787 158.979,502.265 143.421,501.957 C 133.605,500.178 122.709,496.92 111.798,492.489 C 101.512,487.028 80.344,472.735 60.416,454.61 C 43.943,435.196 28.313,411.182 16.047,385.349 C 8.865,363.118 6.273,351.162 4.596,338.596 C 4.405,312.977 7.179,296.594 10.92,285.662 C 14.616,278.002 23.708,265.382 32.185,257.698 C 40.122,252.43 47.613,249.043 58.922,245.922 C 65.889,245.024 76.005,245.048 85.812,246.343 C 93.965,248.466 103.006,251.675 114.907,257.391 C 125.688,264.068 137.389,272.679 157.656,291.422 C 174.93,311.803 191.5,336.89 203.509,360.702 C 212.377,385.806 216.649,407.759 217.298,430.39 C 214.987,448.052 211.49,459.887 207.895,468.189 C 202.059,478.114 197.788,483.352 183.294,495.63" data-line="nan"  stroke-width="50.0"/>
    <path d="M 969.896,447.978 C 959.246,459.007 944.499,471.897 929.737,482.523 C 919.582,488.526 904.619,495.445 889.659,500.018 C 874.859,502.151 864.985,502.06 855.121,500.655 C 845.187,497.572 835.434,492.336 826.264,484.502 C 818.616,474.726 813.358,464.862 809.885,455.059 C 806.785,440.236 805.814,425.716 806.524,411.069 C 808.906,396.52 812.822,381.904 820.223,362.282 C 827.265,347.565 835.656,332.879 845.794,317.804 C 857.388,302.906 870.762,288.067 880.706,278.568 C 895.702,266.723 910.303,257.17 919.854,252.435 C 934.506,247.459 946.989,245.165 962.031,245.378 C 976.706,248.785 986.749,253.729 996.604,261.236 C 1004.767,270.428 1010.953,280.484 1016.528,295.369 C 1019.227,310.203 1020.0,325.172 1018.608,345.025 C 1015.821,359.8 1009.918,379.609 1001.435,399.91 C 993.717,414.58 981.743,433.074 974.997,442.412 L 969.896,447.978" data-line="nan"  stroke-width="50.0"/>
    <path d="M 193.394,701.256 C 183.298,718.712 174.862,737.406 168.444,756.213 C 164.036,775.102 161.517,794.767 161.079,811.88 C 162.605,831.974 166.349,853.408 171.483,871.409 C 178.678,889.205 186.658,904.148 197.132,919.842 C 209.563,935.043 222.014,947.667 238.718,961.25 C 253.733,971.194 278.487,983.453 299.926,990.392 C 322.764,994.525 345.217,995.037 367.052,992.892 C 384.113,989.203 451.204,968.406 475.472,962.279 C 494.711,959.348 519.444,958.975 538.732,961.199 C 562.314,966.284 627.188,986.618 646.962,991.711 C 668.916,994.497 696.477,994.415 721.189,990.908 C 735.208,987.164 747.06,982.995 758.324,978.106 C 773.034,970.136 793.722,955.749 811.262,939.916 C 829.626,917.419 842.992,895.491 853.123,872.11 C 856.977,859.692 860.379,844.429 863.395,817.824 C 862.74,791.049 858.802,765.164 851.724,740.88 C 840.445,716.0 827.371,695.094 807.06,669.344" data-line="nan"  stroke-width="50.0"/>
    <path d="M 807.06,669.344 L 736.43,588.033" data-line="nan"  stroke-width="50.0"/>
    <path d="M 630.627,469.652 C 606.186,448.749 595.703,441.108 584.32,434.236" data-line="nan"  stroke-width="50.0"/>
    <path d="M 177.585,497.816 L 183.294,495.63" data-line="5.0"  stroke-width="50.0"/>
    <path d="M 736.43,588.033 L 630.627,469.652" data-line="9.0"  stroke-width="50.0"/>
    <path d="M 584.3126680448272,434.24985998728084 A 155.26093673497147,155.26093673497147 0 0,0 382.45120500956523,485.48147247537025" data-line="11.0"  stroke-width="50.0"/>
    <path d="M 381.143,484.611 L 193.394,701.256" data-line="12.0"  stroke-width="50.0"/>
  </g>
</svg>