<svg xmlns="http://www.w3.org/2000/svg" width="1024" height="1024" viewBox="-54.0 -54.0 1132.0 1132.0">
  <g fill="none" stroke="black" stroke-width="50" stroke-linecap="round" stroke-linejoin="round">
    <path d="M 892.15,114.636 C 902.13,115.387 913.757,117.662 930.217,123.609 C 937.609,127.664 944.695,132.846 952.1,139.988 C 956.878,145.855 965.233,160.148 969.869,172.59 C 972.42,182.631 974.545,200.39 974.656,231.393" data-line="nan"  stroke-width="50.0"/>
    <path d="M 49.549,201.259 C 51.237,185.838 56.368,167.593 63.029,153.584 C 72.588,140.552 84.099,130.379 98.705,121.823 Q 113.667,116.774 128.533,114.621" data-line="nan"  stroke-width="50.0"/>
    <path d="M 974.283,920.225 C 973.893,933.594 972.396,946.727 969.97,957.345 C 967.127,965.667 962.663,975.558 957.398,983.981 C 951.182,991.888 943.354,999.418 937.215,1004.098 C 926.981,1010.219 915.888,1014.768 905.453,1017.647 Q 888.835,1019.795 853.404,1019.975" data-line="nan"  stroke-width="50.0"/>
    <path d="M 135.914,1019.523 C 124.938,1018.923 114.579,1016.828 105.165,1013.887 C 94.131,1008.965 85.008,1003.364 77.422,997.183 C 70.515,990.172 65.353,983.382 59.95,974.197 C 56.106,965.489 51.085,946.192 49.459,930.503 L 49.335,892.782" data-line="nan"  stroke-width="50.0"/>
    <path d="M 974.645,314.227 L 49.369,314.295" data-line="0.0"  stroke-width="50.0"/>
    <path d="M 234.672,195.91 L 232.76,100.413" data-line="3.0"  stroke-width="50.0"/>
    <path d="M 234.672,195.91 L 235.672,198.605" data-line="4.0"  stroke-width="50.0"/>
    <path d="M 235.672,198.605 Q 236.772500001978,201.16599999923767 238.735,204.283" data-line="5.0"  stroke-width="50.0"/>
    <path d="M 238.735,204.283 L 240.936,207.318" data-line="6.0"  stroke-width="50.0"/>
    <path d="M 240.936,207.318 L 243.582,210.162" data-line="7.0"  stroke-width="50.0"/>
    <path d="M 243.582,210.162 L 247.05,212.957" data-line="8.0"  stroke-width="50.0"/>
    <path d="M 247.05,212.957 L 251.017,215.375" data-line="9.0"  stroke-width="50.0"/>
    <path d="M 251.017,215.375 L 255.08,217.34" data-line="10.0"  stroke-width="50.0"/>
    <path d="M 255.08,217.34 L 258.568,218.582" data-line="11.0"  stroke-width="50.0"/>
    <path d="M 258.568,218.582 L 261.271,219.26" data-line="12.0"  stroke-width="50.0"/>
    <path d="M 261.27100002257214,219.25999986786556 A 32.85365495397203,32.85365495397203 0 0,0 265.7740000042335,219.7129998649197" data-line="13.0"  stroke-width="50.0"/>
    <path d="M 265.774,219.713 L 268.236,219.629" data-line="14.0"  stroke-width="50.0"/>
    <path d="M 268.236,219.629 Q 270.58949999801996,219.41549999369704 273.949,218.724" data-line="15.0"  stroke-width="50.0"/>
    <path d="M 273.9489999999891,218.7239999999548 A 40.65912542518882,40.65912542518882 0 0,0 279.63699999998113,216.90199999995315" data-line="16.0"  stroke-width="50.0"/>
    <path d="M 279.6363116810392,216.90051410147032 A 38.52764690115831,38.52764690115831 0 0,0 289.61887380685084,210.21094366125135" data-line="17.0"  stroke-width="50.0"/>
    <path d="M 289.618,210.21 L 291.906,207.811" data-line="18.0"  stroke-width="50.0"/>
    <path d="M 291.906,207.811 L 293.681,205.531" data-line="19.0"  stroke-width="50.0"/>
    <path d="M 293.681,205.531 Q 295.5309999963985,202.83099999444335 296.529,200.663" data-line="20.0"  stroke-width="50.0"/>
    <path d="M 296.529,200.663 L 297.558,198.087" data-line="21.0"  stroke-width="50.0"/>
    <path d="M 297.558,198.087 L 299.453,36.243" data-line="22.0"  stroke-width="50.0"/>
    <path d="M 724.485,114.637 L 299.97,114.637" data-line="23.0"  stroke-width="50.0"/>
    <path d="M 725.713,194.059 L 724.482,100.799" data-line="24.0"  stroke-width="50.0"/>
    <path d="M 725.713,194.059 L 727.028,198.612" data-line="25.0"  stroke-width="50.0"/>
    <path d="M 727.028,198.612 L 729.035,203.239" data-line="26.0"  stroke-width="50.0"/>
    <path d="M 729.035,203.239 L 731.787,207.642" data-line="27.0"  stroke-width="50.0"/>
    <path d="M 731.787,207.642 L 735.265,211.626" data-line="28.0"  stroke-width="50.0"/>
    <path d="M 735.265,211.626 L 739.255,214.99" data-line="29.0"  stroke-width="50.0"/>
    <path d="M 739.255,214.99 L 743.622,217.607" data-line="30.0"  stroke-width="50.0"/>
    <path d="M 743.622,217.607 L 748.09,219.467" data-line="31.0"  stroke-width="50.0"/>
    <path d="M 748.09,219.467 L 752.628,220.546" data-line="32.0"  stroke-width="50.0"/>
    <path d="M 752.628,220.546 L 757.155,220.966" data-line="33.0"  stroke-width="50.0"/>
    <path d="M 757.155,220.966 L 761.813,220.644" data-line="34.0"  stroke-width="50.0"/>
    <path d="M 761.813,220.644 L 766.588,219.631" data-line="35.0"  stroke-width="50.0"/>
    <path d="M 766.588,219.631 L 771.451,217.729" data-line="36.0"  stroke-width="50.0"/>
    <path d="M 771.451,217.729 L 776.132,215.035" data-line="37.0"  stroke-width="50.0"/>
    <path d="M 776.132,215.035 L 780.398,211.514" data-line="38.0"  stroke-width="50.0"/>
    <path d="M 780.398,211.514 L 784.048,207.344" data-line="39.0"  stroke-width="50.0"/>
    <path d="M 784.048,207.344 L 786.857,202.713" data-line="40.0"  stroke-width="50.0"/>
    <path d="M 786.857,202.713 L 788.808,197.834" data-line="41.0"  stroke-width="50.0"/>
    <path d="M 788.808,197.834 L 789.87,193.024" data-line="42.0"  stroke-width="50.0"/>
    <path d="M 789.87,193.024 L 784.397,17.735" data-line="43.0"  stroke-width="50.0"/>
    <path d="M 724.482,100.799 L 731.302,17.766" data-line="44.0"  stroke-width="50.0"/>
    <path d="M 731.302,17.766 C 732.6455047285632,15.849662439429798 735.235486838389,13.106829807053243 737.047,11.612" data-line="45.0"  stroke-width="50.0"/>
    <path d="M 737.0478090484982,11.612970620493169 A 33.794834343142256,33.794834343142256 0 0,1 746.464823707166,6.064545489729426" data-line="46.0"  stroke-width="50.0"/>
    <path d="M 746.465,6.065 L 749.108,5.195" data-line="47.0"  stroke-width="50.0"/>
    <path d="M 749.1088479225176,5.198266809943782 A 37.38288542359663,37.38288542359663 0 0,1 758.4839996824825,3.9992859612027587" data-line="48.0"  stroke-width="50.0"/>
    <path d="M 758.484,4.0 L 760.963,4.203" data-line="49.0"  stroke-width="50.0"/>
    <path d="M 760.9629999997551,4.203000001773205 A 41.381212128371374,41.381212128371374 0 0,1 767.5269999994755,5.661000001696273" data-line="50.0"  stroke-width="50.0"/>
    <path d="M 767.527,5.661 L 770.871,6.873" data-line="51.0"  stroke-width="50.0"/>
    <path d="M 770.871,6.873 L 773.596,8.14" data-line="52.0"  stroke-width="50.0"/>
    <path d="M 773.5983312829352,8.135975756293039 A 36.18735247805728,36.18735247805728 0 0,1 782.556711779032,15.464795387718283" data-line="53.0"  stroke-width="50.0"/>
    <path d="M 782.561,15.461 L 784.397,17.735" data-line="54.0"  stroke-width="50.0"/>
    <path d="M 232.76,100.413 L 237.005,21.816" data-line="55.0"  stroke-width="50.0"/>
    <path d="M 237.005,21.816 L 238.458,19.394" data-line="56.0"  stroke-width="50.0"/>
    <path d="M 238.45680605063384,19.393174226615766 A 37.808223602445906,37.808223602445906 0 0,1 247.18304480233346,10.418973180151244" data-line="57.0"  stroke-width="50.0"/>
    <path d="M 247.186,10.423 L 249.519,8.939" data-line="58.0"  stroke-width="50.0"/>
    <path d="M 249.519,8.939 Q 251.89400000182553,7.631499993467981 255.429,6.426" data-line="59.0"  stroke-width="50.0"/>
    <path d="M 255.429,6.426 L 259.123,5.457" data-line="60.0"  stroke-width="50.0"/>
    <path d="M 259.123,5.457 L 262.99,4.887" data-line="61.0"  stroke-width="50.0"/>
    <path d="M 262.99,4.887 L 267.089,4.814" data-line="62.0"  stroke-width="50.0"/>
    <path d="M 267.089,4.814 L 271.314,5.347" data-line="63.0"  stroke-width="50.0"/>
    <path d="M 271.314,5.347 L 275.788,6.495" data-line="64.0"  stroke-width="50.0"/>
    <path d="M 275.788,6.495 L 280.365,8.383" data-line="65.0"  stroke-width="50.0"/>
    <path d="M 280.365,8.383 L 284.812,11.003" data-line="66.0"  stroke-width="50.0"/>
    <path d="M 284.812,11.003 L 288.903,14.341" data-line="67.0"  stroke-width="50.0"/>
    <path d="M 288.903,14.341 L 292.419,18.292" data-line="68.0"  stroke-width="50.0"/>
    <path d="M 292.419,18.292 L 295.224,22.66" data-line="69.0"  stroke-width="50.0"/>
    <path d="M 295.224,22.66 L 297.304,27.237" data-line="70.0"  stroke-width="50.0"/>
    <path d="M 297.304,27.237 L 298.669,31.771" data-line="71.0"  stroke-width="50.0"/>
    <path d="M 298.669,31.771 L 299.453,36.243" data-line="72.0"  stroke-width="50.0"/>
    <path d="M 790.617,114.573 L 892.15,114.636" data-line="75.0"  stroke-width="50.0"/>
    <path d="M 49.393,300.642 L 49.549,201.259" data-line="77.0"  stroke-width="50.0"/>
    <circle cx="512.2614460347903" cy="665.1020300402872" r="215.17648911132537" data-line="78.0"  stroke-width="50.0"/>
    <path d="M 974.656,231.393 L 974.283,920.225" data-line="79.0"  stroke-width="50.0"/>
    <path d="M 128.533,114.621 L 232.79,114.622" data-line="79.0"  stroke-width="50.0"/>
    <path d="M 853.404,1019.975 L 135.914,1019.523" data-line="81.0"  stroke-width="50.0"/>
    <path d="M 49.335,892.782 L 49.393,300.642" data-line="83.0"  stroke-width="50.0"/>
  </g>
</svg>