<svg xmlns="http://www.w3.org/2000/svg" width="1024" height="1024" viewBox="-54.0 -54.0 1132.0 1132.0">
  <g fill="none" stroke="black" stroke-width="50" stroke-linecap="round" stroke-linejoin="round">
    <path d="M 161.923,4.0 C 172.933,17.82 181.615,30.456 188.493,43.401 C 193.426,56.572 195.465,65.221 196.846,78.205 C 196.773,95.427 195.184,108.533 191.776,121.667 C 188.552,130.278 179.358,147.868 167.726,164.779 C 132.633,211.868 124.69,224.406 117.802,237.245 C 112.283,249.949 108.332,262.761 106.044,275.498 C 105.491,288.174 106.503,300.898 108.787,313.773 C 112.41,326.502 115.937,335.103 125.958,352.325 C 153.869,390.403 161.531,403.546 165.362,412.143 C 169.578,425.154 171.397,433.76 172.461,446.759 L 172.446,465.286" data-line="nan"  stroke-width="50.0"/>
    <path d="M 299.038,463.702 C 296.524,445.075 292.224,432.12 283.398,414.896 C 265.31,385.218 257.394,367.952 254.676,359.452 C 251.93,346.556 250.769,325.485 252.12,312.669 C 253.883,304.142 257.732,291.379 263.247,278.372 C 276.842,257.483 306.443,219.116 318.579,202.047 C 328.115,184.823 336.568,162.789 339.322,149.762 C 340.092,141.09 338.836,123.699 333.11,102.18 Q 327.899,89.105 321.118,75.423" data-line="nan"  stroke-width="50.0"/>
    <path d="M 1004.217,296.852 C 988.132,276.333 981.739,270.268 977.514,267.604 C 973.063,265.76 964.403,264.238 958.038,264.546 C 952.457,265.875 863.195,299.573 829.149,313.898 C 812.139,322.502 795.059,333.274 782.697,343.246 Q 770.639,355.379 751.634,376.499" data-line="nan"  stroke-width="50.0"/>
    <path d="M 498.259,667.935 L 410.595,769.528" data-line="nan"  stroke-width="50.0"/>
    <path d="M 1004.217,296.852 C 985.17,314.425 977.711,320.248 917.281,359.9 C 895.806,375.061 878.964,388.867 861.899,405.647 C 843.951,426.905 827.961,448.485 730.524,589.994" data-line="nan"  stroke-width="50.0"/>
    <path d="M 613.651,761.591 C 555.287,847.438 526.873,885.868 512.559,903.061 C 496.489,920.404 479.358,936.703 461.593,951.739" data-line="nan"  stroke-width="50.0"/>
    <path d="M 461.593,951.739 C 444.633,964.839 427.47,976.824 410.126,987.332 C 393.005,995.951 375.535,1003.281 354.26,1010.529 C 332.804,1015.879 315.725,1018.41 294.261,1019.891 C 264.323,1019.929 247.142,1019.036 230.037,1016.764 C 208.637,1012.003 191.48,1006.568 170.227,997.667 C 153.102,988.684 135.88,977.92 118.792,965.33 C 101.689,950.572 88.979,937.787 73.935,920.553 C 61.156,903.202 50.786,886.199 42.163,869.13 C 34.998,851.906 29.358,834.917 25.295,817.946 C 21.922,796.584 20.223,775.254 19.805,749.615 Q 20.656,723.957 22.717,698.402" data-line="nan"  stroke-width="50.0"/>
    <path d="M 377.829,565.863 L 45.044,564.951" data-line="4.0"  stroke-width="50.0"/>
    <path d="M 410.595,769.528 L 377.829,565.863" data-line="5.0"  stroke-width="50.0"/>
    <path d="M 751.634,376.499 L 498.259,667.935" data-line="6.0"  stroke-width="50.0"/>
    <path d="M 22.717,698.402 L 45.044,564.951" data-line="7.0"  stroke-width="50.0"/>
    <path d="M 730.524,589.994 L 613.651,761.591" data-line="9.0"  stroke-width="50.0"/>
  </g>
</svg>