<svg id="Layer_1" data-name="Layer 1" xmlns="http://www.w3.org/2000/svg" version="1.1" viewBox="0 0 600 220"><defs><style>.cls-2,.cls-4{stroke-width:0}.cls-4{fill:#173f8f}.cls-2{fill:#000}</style></defs><g id="_2309241588656" data-name="2309241588656"><path class="cls-2" d="M471.2 98.6v-4.5l59 2.2-59 2.3zM69.6 57.8h32.5v-7.4H77.8V11.6h-8.2v46.2z"/><path d="M107.6 57.8h8.3l3-7.1c-.8-.2-1.7-.5-2.5-.8-1.6-.6-3.1-1.2-4.6-1.9l-4.3 9.8Zm15.7-17.5 8.2-19.4 8.2 19.4c1.1-.3 2.3-.6 3.4-1 1.3-.5 2.6-1 3.8-1.7l-11.6-26.5h-7.5l-11.6 26.5c1.2.6 2.5 1.2 3.8 1.7 1 .4 2.1.7 3.1.9Zm20.9 10.5 3 7h8.6l-4.3-9.8c-1.5.7-3 1.4-4.6 1.9l-2.7.9Z" style="fill:#000;fill-rule:evenodd;stroke-width:0"/><path class="cls-2" d="M158.6 119.8h7.1l19.2-46.5h-8.8l-13.9 35.5-13.9-35.5h-9l19.2 46.5Zm39.7-.3h8.1V73.3h-8.1v46.2Zm25.5 0h32.4v-7.4h-24.3V73.3h-8.1v46.2Zm45.9 0h32.4v-7.4h-24.3V73.3h-8.1v46.2Zm41.9 0h8.3l4.8-11.2h21.9l4.7 11.2h8.6L339.6 73h-7.5l-20.3 46.5Zm16-18.4 7.9-18.5 8 18.5h-15.9Zm64.2 19.1c8.2 0 14.7-3.3 19.3-7.2V93.6h-19.7v7.1h11.8v8.6c-2.8 2.1-6.8 3.5-11.2 3.5-9.4 0-15.7-7-15.7-16.5 0-9 6.5-16.4 15-16.4s9.4 1.9 12.9 5l5.2-6.1c-4.8-4-9.7-6.3-17.8-6.3-13.9 0-23.8 11-23.8 23.9 0 13.6 9.5 23.9 24 23.9Zm34.8-.7h34.6v-7.3h-26.5V99.8h23.2v-7.3h-23.2v-12h26.1v-7.3h-34.3v46.2ZM165 57.8h8.1V41.7h10.2l11.4 16.1h9.6l-12.5-17.5c6.5-1.8 11-6.4 11-14 0-4.2-1.4-7.6-3.8-10.1-3-2.9-7.5-4.6-13.3-4.6h-20.6v46.2Zm8.1-23.3V19h11.8c6 0 9.6 2.7 9.6 7.7 0 4.8-3.7 7.9-9.5 7.9h-11.9Zm64.3 24.1c8.6 0 13.9-3.2 18.8-8.2l-5.2-5.3c-4 3.7-7.6 6-13.3 6-8.8 0-15.3-7.4-15.3-16.4 0-9.2 6.4-16.4 15.3-16.4s9.2 2.3 12.9 5.7l5.2-6c-4.4-4.2-9.6-7.2-18.1-7.2-14 0-23.8 10.8-23.8 23.9 0 13.4 10 23.9 23.5 23.9Zm30.4-.8h8.1V38.3H298v19.5h8.1V11.6H298v19.2h-22.1V11.6h-8.1v46.2Zm53.3 0h8v-33l14.5 21.7h.3l14.6-21.8v33.1h8.1V11.6H358l-14.1 21.9-14.1-21.9h-8.6v46.2Zm82.5.8c14.2 0 24.2-10.9 24.2-23.9 0-13.1-9.9-23.9-24.1-23.9s-24.2 10.9-24.2 23.9c0 13.1 9.9 23.9 24.1 23.9Zm.2-7.5c-9.2 0-15.7-7.5-15.7-16.4 0-9.1 6.4-16.4 15.6-16.4s15.7 7.5 15.7 16.4c0 9.1-6.4 16.4-15.6 16.4Zm37.1 6.7h8V24.9l25.5 32.9h6.8V11.6h-8v32l-24.8-32h-7.5v46.2Zm66.6 0h8.2V19.1h14.7v-7.5h-37.5v7.5h14.7v38.7Z"/><path d="M158.4 41.1c-3.7 2.9-7.8 5.2-12.2 6.8-4.7 1.7-9.6 2.5-14.5 2.5s-9.9-.9-14.5-2.5c-4.4-1.6-8.5-3.9-12.2-6.8l-.3-.3 4.4-5.3.3.3c3.1 2.4 6.5 4.3 10.1 5.6 3.9 1.4 8.1 2.1 12.2 2.1s8.3-.7 12.2-2.1c3.7-1.3 7.1-3.2 10.1-5.6l.3-.3 4.4 5.3-.3.3Z" style="fill:#173f8f;fill-rule:evenodd;stroke-width:0"/><path class="cls-2" d="m129.4 98.6-59-2.3 59-2.2v4.5z"/><path class="cls-4" d="M23.7 164.7c8.4 0 14.4-6.5 14.4-14.2 0-7.8-5.9-14.2-14.3-14.2s-14.4 6.5-14.4 14.2c0 7.8 5.9 14.2 14.3 14.2Zm.1-4.4c-5.5 0-9.3-4.4-9.3-9.8s3.8-9.8 9.3-9.8 9.3 4.4 9.3 9.8-3.8 9.8-9.3 9.8Zm25 3.9h4.8v-9.6h6l6.7 9.6H72l-7.4-10.4c3.8-1.1 6.6-3.8 6.6-8.3 0-2.5-.8-4.5-2.3-6-1.8-1.7-4.5-2.7-7.9-2.7H48.8v27.5Zm4.8-13.8v-9.2h7c3.6 0 5.7 1.6 5.7 4.6 0 2.9-2.2 4.7-5.6 4.7h-7.1Zm26.1 13.8h4.9l2.8-6.6h13l2.8 6.6h5.1l-12.1-27.7h-4.5l-12.1 27.7Zm9.5-10.9 4.7-11 4.7 11h-9.5Zm28.7 10.9h19.3v-4.4h-14.4v-23.1H118v27.5Zm59.9.6 3.6-2.6-4.3-4.4c1.4-1.9 2.6-4.1 3.7-6.3l-3.6-1.9c-.9 1.9-1.9 3.7-2.9 5.3l-4.7-4.8c3.6-1.4 6-3.5 6-7.1 0-3.8-2.9-6.7-7.3-6.7s-7.9 3.2-7.9 6.9c0 2.1.7 3.8 2.3 5.8-3.8 1.6-5.8 4.2-5.8 7.7 0 4.8 3.8 7.9 8.9 7.9s6.1-1.4 8.4-3.6l3.6 3.7ZM167 147.6c-1.5-1.7-2.1-2.7-2.1-4.1 0-2 1.3-3.4 3.3-3.4s3.1 1.3 3.1 3.1c0 2-1.5 3.3-4.3 4.4Zm-.7 13c-2.7 0-4.6-1.7-4.6-4 0-1.8 1.1-3.5 3.6-4.6l6.1 6.2c-1.6 1.5-3.3 2.4-5.2 2.4Zm36.5 3.6h4.7v-19.6l8.6 12.9h.2l8.7-12.9v19.7h4.8v-27.5h-5.1l-8.4 13-8.4-13h-5.1v27.5Zm36.5 0h4.9l2.8-6.6h13l2.8 6.6h5.1l-12.1-27.7h-4.5l-12.1 27.7Zm9.6-10.9 4.7-11 4.7 11h-9.5Zm26 10.9h5.5l7.3-10.4 7.2 10.4h5.7l-10-14 9.6-13.4h-5.5l-6.9 9.8-6.8-9.8h-5.7l9.6 13.5-10 14Zm35.8 0h4.8v-27.5h-4.8v27.5Zm17.1 0h19.3v-4.4h-14.4v-23.1h-4.8v27.5Zm29.1 0h19.3v-4.4h-14.4v-23.1H357v27.5Zm40.7.5c8.4 0 14.4-6.5 14.4-14.2 0-7.8-5.9-14.2-14.3-14.2s-14.4 6.5-14.4 14.2c0 7.8 5.9 14.2 14.3 14.2Zm.1-4.4c-5.5 0-9.3-4.4-9.3-9.8s3.8-9.8 9.3-9.8 9.3 4.4 9.3 9.8-3.8 9.8-9.3 9.8Zm25 3.9h4.8V153h13.8v-4.4h-13.8v-7.5h15.6v-4.4h-20.4v27.5Zm25.2 0h4.9l2.8-6.6h13l2.8 6.6h5.1l-12.1-27.7h-4.5l-12.1 27.7Zm9.5-10.9 4.7-11 4.7 11h-9.5Zm39.7 11.4c5.1 0 8.3-1.9 11.1-4.9l-3.1-3.1c-2.4 2.2-4.5 3.6-7.9 3.6-5.3 0-9.1-4.4-9.1-9.8 0-5.5 3.8-9.8 9.1-9.8s5.5 1.4 7.7 3.4l3.1-3.6c-2.6-2.5-5.7-4.3-10.7-4.3-8.3 0-14.2 6.4-14.2 14.2 0 8 6 14.2 14 14.2Zm21.4-.5h4.8v-27.5h-4.8v27.5Zm14.7 0h4.9l2.8-6.6h13l2.8 6.6h5.1l-12.1-27.7h-4.5l-12.1 27.7Zm9.5-10.9 4.7-11 4.7 11h-9.5Zm28.7 10.9h19.3v-4.4h-14.4v-23.1h-4.8v27.5ZM188.6 209.1c5.8 0 9.8-3.1 9.8-8.2 0-4.6-3-6.7-8.8-8.1-5.3-1.3-6.5-2.2-6.5-4.3 0-1.9 1.6-3.3 4.5-3.3s5 1 7.5 2.8l2.6-3.6c-2.8-2.2-6-3.5-10-3.5s-9.4 3.3-9.4 8c0 5.1 3.3 6.9 9.1 8.3 5.1 1.2 6.2 2.2 6.2 4.2 0 2.2-1.9 3.5-4.9 3.5s-6-1.3-8.7-3.6l-2.9 3.5c3.3 2.9 7.3 4.4 11.5 4.4Zm35.5.1c7.2 0 11.8-4.1 11.8-12.3v-15.6h-4.8v15.8c0 5.1-2.6 7.7-6.9 7.7s-6.9-2.7-6.9-7.8v-15.6h-4.8v15.8c0 8 4.6 12.1 11.7 12.1Zm27.2-.4h4.8v-9.6h6l6.7 9.6h5.7l-7.4-10.4c3.8-1.1 6.6-3.8 6.6-8.3 0-2.5-.8-4.5-2.3-6-1.8-1.7-4.5-2.7-7.9-2.7h-12.2v27.5Zm4.8-13.9v-9.2h7c3.6 0 5.7 1.6 5.7 4.6 0 2.9-2.2 4.7-5.6 4.7h-7.1Zm45.3 14.3c4.9 0 8.7-2 11.5-4.3v-11.5h-11.7v4.2h7v5.1c-1.7 1.3-4 2.1-6.6 2.1-5.6 0-9.3-4.2-9.3-9.8 0-5.3 3.8-9.8 8.9-9.8s5.6 1.1 7.7 2.9l3.1-3.6c-2.8-2.4-5.8-3.7-10.6-3.7-8.3 0-14.2 6.5-14.2 14.2 0 8.1 5.6 14.2 14.2 14.2Zm26.5-.4h20.6v-4.3h-15.7v-7.4h13.8v-4.3h-13.8v-7.1h15.5v-4.3h-20.4v27.5Zm35 0h4.8v-9.6h6l6.7 9.6h5.7l-7.4-10.4c3.8-1.1 6.6-3.8 6.6-8.3 0-2.5-.8-4.5-2.3-6-1.8-1.7-4.5-2.7-7.9-2.7h-12.2v27.5Zm4.8-13.9v-9.2h7c3.6 0 5.7 1.6 5.7 4.6 0 2.9-2.2 4.7-5.6 4.7h-7.1Zm39.4 13.9h4.9v-10.9l10.9-16.5h-5.5l-7.8 12.2-7.7-12.2h-5.7l10.9 16.6v10.8Z"/></g></svg>