<svg xmlns="http://www.w3.org/2000/svg" width="1024" height="1024" viewBox="-54.0 -54.0 1132.0 1132.0">
  <g fill="none" stroke="black" stroke-width="50" stroke-linecap="round" stroke-linejoin="round">
    <path d="M 361.755,986.617 C 356.447,980.732 353.734,976.379 351.737,971.711 C 349.542,963.0 348.859,954.706 348.837,918.743" data-line="nan"  stroke-width="50.0"/>
    <path d="M 998.13,993.029 C 1004.709,989.007 1010.663,983.368 1013.819,979.185 C 1017.15,972.295 1019.776,959.874 1020.0,928.767" data-line="nan"  stroke-width="50.0"/>
    <path d="M 337.31,32.591 C 394.869,63.87 420.666,81.22 436.009,93.839 C 450.72,107.919 464.07,122.747 477.283,139.881 C 488.552,157.199 496.797,172.414 504.894,190.966 C 511.788,211.285 517.343,233.12 520.571,251.103 C 522.682,273.485 523.201,297.289 522.183,316.411 C 519.4,337.955 515.784,354.887 509.776,374.622 C 502.606,392.386 493.053,411.41 482.373,429.152 C 470.191,446.399 457.712,461.382 443.067,476.6 C 429.142,489.352 414.644,500.833 388.772,517.765 L 326.583,551.457" data-line="nan"  stroke-width="50.0"/>
    <path d="M 337.31,32.591 C 299.29,28.686 267.21,27.454 242.013,28.305 C 216.46,31.552 193.389,36.736 167.948,45.244 C 143.971,56.301 121.803,69.497 99.077,86.467 C 78.042,105.848 60.629,125.25 43.978,148.419 C 30.497,172.315 19.446,198.273 11.621,224.276 C 6.273,252.975 4.1,280.695 4.911,310.661 C 8.618,338.796 15.111,366.103 25.396,394.503 C 37.817,419.536 53.108,443.423 70.292,464.87 C 89.821,484.464 111.192,501.665 133.882,516.328 C 157.893,528.552 183.933,538.634 208.713,545.46 Q 247.21,551.729 269.417,553.584" data-line="nan"  stroke-width="50.0"/>
    <path d="M 258.762,415.466 C 236.994,409.985 219.675,402.558 211.212,397.776 C 200.617,390.357 186.348,377.365 178.976,368.896 C 172.692,360.173 162.195,341.075 155.245,321.59 C 151.384,300.196 151.393,278.242 154.964,259.588 C 162.497,240.099 172.679,223.355 186.043,208.128 C 194.681,200.643 203.178,194.557 220.027,185.487 C 238.981,179.156 247.726,177.527 258.128,176.744 C 273.511,176.904 282.694,178.06 293.064,180.498 C 303.311,184.068 314.456,189.119 323.211,194.256 C 340.583,208.162 347.144,215.049 355.658,226.127 C 361.699,235.944 365.912,244.69 369.923,255.576 C 372.155,264.211 373.914,274.819 374.443,285.844 C 373.617,295.563 371.715,305.607 368.337,315.813 C 363.752,325.648 358.687,334.032 352.127,342.181 C 338.652,354.259 329.689,359.728 322.61,362.91 C 312.068,366.301 303.532,367.866 281.632,368.087" data-line="nan"  stroke-width="50.0"/>
    <path d="M 348.822,686.772 C 347.62,665.29 344.158,646.976 337.786,627.948 C 329.185,611.276 319.773,597.887 309.681,587.024 L 269.417,553.584" data-line="nan"  stroke-width="50.0"/>
    <path d="M 1019.972,286.423 C 1018.084,258.218 1012.554,228.693 1003.477,199.609 C 998.136,186.436 990.658,170.934 974.789,144.591 C 956.425,120.851 935.945,99.661 912.176,79.742 C 888.647,64.35 863.564,51.688 837.953,41.785 C 807.983,33.636 785.609,29.764 761.8,27.663 L 667.305,27.258" data-line="nan"  stroke-width="50.0"/>
    <path d="M 361.755,986.617 L 364.21,988.602" data-line="1.0"  stroke-width="50.0"/>
    <path d="M 364.21,988.602 L 367.502,990.795" data-line="2.0"  stroke-width="50.0"/>
    <path d="M 367.502000011958,990.7949999792468 A 59.41332489942596,59.41332489942596 0 0,0 374.9820000087373,994.4329999782901" data-line="3.0"  stroke-width="50.0"/>
    <path d="M 374.982,994.433 L 378.336,995.487" data-line="4.0"  stroke-width="50.0"/>
    <path d="M 378.336,995.487 L 998.13,993.029" data-line="5.0"  stroke-width="50.0"/>
    <path d="M 734.254,551.331 L 326.583,551.457" data-line="7.0"  stroke-width="50.0"/>
    <path d="M 348.837,918.743 L 348.822,686.772" data-line="8.0"  stroke-width="50.0"/>
    <path d="M 1020.0,928.767 L 1019.972,286.423" data-line="10.0"  stroke-width="50.0"/>
    <path d="M 667.305,27.258 L 327.638,27.365" data-line="19.0"  stroke-width="50.0"/>
  </g>
</svg>